<svg aria-hidden="true" style="position: absolute; width: 0; height: 0; overflow: hidden;" version="1.1" xmlns="http://www.w3.org/2000/svg" xmlns:xlink="http://www.w3.org/1999/xlink">
<defs>
<symbol id="wait" viewBox="0 0 20 32">
<path d="M3 4c-1.656 0-3 1.344-3 3v18c0 1.656 1.344 3 3 3h2c1.656 0 3-1.344 3-3v-18c0-1.656-1.344-3-3-3h-2zM15 4c-1.656 0-3 1.344-3 3v18c0 1.656 1.344 3 3 3h2c1.656 0 3-1.344 3-3v-18c0-1.656-1.344-3-3-3h-2z"></path>
</symbol>
<symbol id="start" viewBox="0 0 24 32">
<path d="M4.563 2.438c-0.925-0.569-2.087-0.587-3.031-0.056s-1.531 1.531-1.531 2.619v22c0 1.087 0.588 2.087 1.531 2.619s2.106 0.506 3.031-0.056l18-11c0.894-0.544 1.438-1.512 1.438-2.563s-0.544-2.012-1.438-2.563l-18-11z"></path>
</symbol>
<symbol id="reset" viewBox="0 0 32 32">
<path d="M0 14c0 1.106 0.894 2 2 2s2-0.894 2-2c0-3.313 2.688-6 6-6h10v2c0 0.806 0.488 1.537 1.238 1.85s1.606 0.137 2.181-0.431l4-4c0.781-0.781 0.781-2.050 0-2.831l-4-4c-0.575-0.575-1.431-0.744-2.181-0.431s-1.238 1.038-1.238 1.844v2h-10c-5.525 0-10 4.475-10 10zM32 18c0-1.106-0.894-2-2-2s-2 0.894-2 2c0 3.313-2.688 6-6 6h-10v-2c0-0.806-0.488-1.538-1.238-1.85s-1.606-0.137-2.181 0.431l-4 4c-0.781 0.781-0.781 2.050 0 2.831l4 4c0.575 0.575 1.431 0.744 2.181 0.431s1.238-1.038 1.238-1.85v-1.994h10c5.525 0 10-4.475 10-10z"></path>
</symbol>
<symbol id="stop" viewBox="0 0 24 32">
<path d="M0 8c0-2.206 1.794-4 4-4h16c2.206 0 4 1.794 4 4v16c0 2.206-1.794 4-4 4h-16c-2.206 0-4-1.794-4-4v-16z"></path>
</symbol>
</defs>
</svg>
